<svg width="154" height="26" viewBox="0 0 154 26" fill="none" xmlns="http://www.w3.org/2000/svg">
<path d="M52.7455 7.27457C52.1801 6.79367 51.5214 6.43481 50.8107 6.22049C50.0277 5.98928 49.2146 5.87561 48.3981 5.88319C47.5005 5.87405 46.6092 6.03294 45.77 6.35166C45.0161 6.63216 44.3181 7.04461 43.7087 7.56972C43.1482 8.05556 42.6731 8.63197 42.3033 9.27497C42.1847 9.48016 42.0798 9.69301 41.9894 9.91211C41.9261 9.63225 41.8399 9.35805 41.7318 9.09227C41.4555 8.39763 41.017 7.77918 40.4528 7.28862C39.8898 6.80683 39.2324 6.44782 38.5227 6.23454C37.7381 6.00335 36.9234 5.88968 36.1054 5.89724C35.1848 5.88635 34.2701 6.04516 33.407 6.36572C32.6491 6.64418 31.9499 7.06208 31.3458 7.59782C30.7944 8.09052 30.329 8.67158 29.9685 9.31715C29.7993 9.63106 29.6567 9.95857 29.5421 10.2963V6.22049H25.8506V20.3452H29.5421V11.9359C29.6999 11.5459 29.9215 11.1849 30.198 10.8678C30.7327 10.2588 31.3906 9.77023 32.1281 9.43427C32.9639 9.04547 33.8767 8.85011 34.7984 8.86272C36.1039 8.86272 37.0408 9.14224 37.6092 9.70129C38.1776 10.2603 38.4665 11.1364 38.4759 12.3295V20.317H42.1675V11.6783C42.1675 11.5471 42.1675 11.43 42.1675 11.3035C42.2692 11.1527 42.3787 11.0073 42.4954 10.8678C43.0311 10.2599 43.6887 9.77145 44.4255 9.43427C45.2628 9.04493 46.1772 8.84957 47.1005 8.86272C48.4059 8.86272 49.3522 9.14224 49.9394 9.70129C50.5265 10.2603 50.8201 11.1364 50.8201 12.3295V20.317H54.5164V11.6783C54.5358 10.789 54.3765 9.9048 54.0479 9.07822C53.7584 8.38478 53.3127 7.76753 52.7455 7.27457Z" fill="white"/>
<path d="M64.8923 16.5655L60.217 6.19336H56.2959L63.0794 20.1868L59.9593 26.0007H63.7961L73.5731 6.19336H69.6239L64.8923 16.5655Z" fill="white"/>
<path d="M91.7314 6.19336H87.2388L83.3317 10.7704L79.1155 6.19336H74.5947L81.2002 13.1737L74.5947 20.318H79.1155L83.2521 15.4224L87.6089 20.318H92.1296L85.3883 13.0051L91.7314 6.19336Z" fill="white"/>
<path d="M106.761 6.76393C105.302 6.12979 103.721 5.8289 102.132 5.88319C100.502 5.8454 98.8813 6.14527 97.3724 6.76393C96.0925 7.28914 94.9913 8.17239 94.2009 9.30777C93.4233 10.4908 93.0276 11.8841 93.0672 13.2992C93.0276 14.7141 93.434 16.1055 94.229 17.2766C95.0492 18.4056 96.1735 19.2781 97.4708 19.7924C98.9889 20.3947 100.612 20.6893 102.245 20.659C103.637 20.6949 105.023 20.4726 106.334 20.0032C107.355 19.635 108.269 19.0202 108.995 18.2136C109.634 17.4833 110.051 16.5864 110.199 15.6276H106.62C106.339 16.3314 105.794 16.8979 105.102 17.2063C104.184 17.6412 103.175 17.85 102.16 17.8154C101.219 17.8396 100.284 17.6656 99.4149 17.3047C98.6995 16.9982 98.074 16.5146 97.5973 15.8993C97.1605 15.3269 96.8811 14.6502 96.7868 13.9364H110.255C110.403 12.3868 110.144 10.8257 109.506 9.40615C108.918 8.23891 107.949 7.30695 106.761 6.76393ZM96.9883 11.7907C97.2586 10.884 97.8432 10.1033 98.6373 9.58886C99.6405 9.01217 100.776 8.70401 101.933 8.69417C103.09 8.68432 104.23 8.97311 105.243 9.53265C105.624 9.78172 105.944 10.1145 106.178 10.5058C106.412 10.8971 106.553 11.3365 106.592 11.7907H96.9883Z" fill="white"/>
<path d="M116.986 0.509766H113.295V20.3171H116.986V0.509766Z" fill="white"/>
<path d="M124.689 0.509766H120.997V20.3171H124.689V0.509766Z" fill="white"/>
<path d="M132.334 6.19727H128.643V20.3219H132.334V6.19727Z" fill="white"/>
<path d="M132.648 0H128.356V3.23719H132.648V0Z" fill="white"/>
<path d="M149.527 6.19375V10.4382C149.441 10.12 149.336 9.80716 149.213 9.50121C148.783 8.41083 148.023 7.4821 147.04 6.84492C145.853 6.13893 144.484 5.79838 143.104 5.8658C141.726 5.84537 140.364 6.16731 139.141 6.80276C138.001 7.39119 137.043 8.28068 136.373 9.37473C135.705 10.5559 135.354 11.8898 135.354 13.2467C135.354 14.6037 135.705 15.9375 136.373 17.1187C137.029 18.212 137.972 19.1047 139.099 19.7C140.274 20.3297 141.589 20.652 142.922 20.637C144.029 20.667 145.128 20.4376 146.131 19.967C146.978 19.5557 147.716 18.9506 148.286 18.2009C148.828 17.4827 149.242 16.6759 149.508 15.8163L149.537 15.7086V16.6783C149.537 17.2311 149.537 17.7886 149.593 18.3555C149.649 18.9223 149.696 19.5782 149.79 20.3184H153.228V6.19375H149.527ZM148.871 15.6289C148.415 16.3308 147.764 16.8843 146.997 17.2218C146.084 17.6206 145.094 17.8141 144.098 17.7886C143.198 17.8081 142.307 17.6138 141.498 17.2218C140.779 16.8685 140.174 16.3217 139.75 15.643C139.322 14.9278 139.106 14.1057 139.127 13.2725C139.101 12.6645 139.204 12.0579 139.429 11.4927C139.654 10.9274 139.997 10.4163 140.434 9.99311C141.306 9.16859 142.527 8.75633 144.098 8.75633C145.085 8.73324 146.067 8.91177 146.983 9.28102C147.746 9.59689 148.398 10.1316 148.857 10.8176C149.321 11.5521 149.555 12.4088 149.527 13.2772C149.541 14.1081 149.313 14.9251 148.871 15.6289Z" fill="white"/>
<path d="M18.2235 19.5588L20.0506 16.2794L17.9799 12.7471L20.0506 9.29909L18.1767 5.82765H14.0167L11.9086 2.30469H8.0905L6.02923 5.86981H1.94415L0 9.21944L2.19244 12.7471L0 16.4434L1.93946 19.6291H6.02923L8.0905 23.1942H11.9882L13.9651 19.54L18.2235 19.5588ZM9.97376 20.7534L7.6314 16.6402H3.05912L5.47174 12.8314L3.06381 8.94304H7.61266L9.95502 4.93285L12.1428 8.89619H16.8275L14.4196 12.7705L16.8275 16.6402H12.1147L9.97376 20.7534Z" fill="white"/>
</svg>
